<?xml version="1.0" encoding="UTF-8"?>
<svg id="Layer_2" data-name="Layer 2" xmlns="http://www.w3.org/2000/svg" viewBox="0 0 2597.97 1260.78">
  <defs>
    <style>
      .cls-1 {
        fill: #fff;
      }
    </style>
  </defs>
  <g id="Layer_1-2" data-name="Layer 1">
    <path class="cls-1" d="M1112.9,799.68c-7.52,48.05-16.32,86.77-26.34,116.15-10.02,29.45-26.95,62.78-50.79,99.98-57.92,93.68-141.73,159.65-251.12,198.06-87.83,31.28-197.83,46.91-330.15,46.91H0l32.19-205.65H436.2c62.55,0,110.76-4.71,144.77-14.42,46.54-13.13,87.83-39.02,123.89-77.36,25.81-26.42,45.02-53.14,57.62-80.17,12.68-26.95,21.79-58.53,27.4-94.51L913.4,0h324.68l-125.18,799.68Z"/>
    <path class="cls-1" d="M1502.42,1260.78h-279.59L1420.2,0h279.55l-197.34,1260.78ZM2597.97,0l-658.18,621.36,442.73,639.42h-391.41l-379.38-641.17L2206.56,0h391.41Z"/>
  </g>
</svg>